<?xml version="1.0" standalone="no"?><!DOCTYPE svg PUBLIC "-//W3C//DTD SVG 1.1//EN" "http://www.w3.org/Graphics/SVG/1.1/DTD/svg11.dtd"><svg t="1535013891228" class="icon" style="" viewBox="0 0 1024 1024" version="1.1" xmlns="http://www.w3.org/2000/svg" p-id="28536" xmlns:xlink="http://www.w3.org/1999/xlink" width="200" height="200"><defs><style type="text/css"></style></defs><path d="M498.63 984.977c-258.709 0-469.724-210.292-469.724-469.725S239.198 45.527 498.631 45.527c68.652 0 135.136 14.453 196.562 43.36 7.226 3.613 14.453 6.503 20.957 10.117 14.453 7.226 19.511 24.57 12.285 39.023-7.227 14.453-24.57 19.511-39.024 12.285-5.78-2.89-12.285-6.504-18.789-9.395-54.199-25.292-112.01-37.578-172.714-37.578-226.913 0-411.912 184.277-411.912 411.913 0 226.913 184.276 411.912 411.912 411.912s411.913-184.276 411.913-411.912c0-7.227 0-14.453-0.723-21.68-0.723-15.898 11.563-29.628 27.46-30.351 15.9-0.723 29.63 11.562 30.352 27.46 0.723 7.95 0.723 16.622 0.723 24.57 0 259.434-210.292 469.726-469.002 469.726z" p-id="28537" fill="#1296db"></path><path d="M887.418 380.116a31.074 31.074 0 1 0 62.149 0 31.074 31.074 0 1 0-62.149 0zM841.169 278.944a31.074 31.074 0 1 0 62.148 0 31.074 31.074 0 1 0-62.148 0zM766.013 191.503a31.074 31.074 0 1 0 62.148 0 31.074 31.074 0 1 0-62.148 0zM755.896 487.068h-223.3v-223.3c0-15.898-13.008-28.906-28.907-28.906s-28.906 13.008-28.906 28.907v223.3h-223.3c-15.898 0-28.906 13.007-28.906 28.906s13.008 28.906 28.906 28.906h223.3v223.3c0 15.898 13.008 28.906 28.906 28.906s28.907-13.008 28.907-28.906v-223.3h223.3c15.898 0 28.906-13.008 28.906-28.906 0-16.621-13.008-28.907-28.906-28.907z" p-id="28538" fill="#1296db"></path></svg>