<?xml version="1.0" standalone="no"?><!DOCTYPE svg PUBLIC "-//W3C//DTD SVG 1.1//EN" "http://www.w3.org/Graphics/SVG/1.1/DTD/svg11.dtd"><svg t="1536217821766" class="icon" style="" viewBox="0 0 1024 1024" version="1.1" xmlns="http://www.w3.org/2000/svg" p-id="1611" xmlns:xlink="http://www.w3.org/1999/xlink" width="200" height="200"><defs><style type="text/css"></style></defs><path d="M507.060 103.72c-228.477 0-413.696 185.211-413.696 413.696 0 228.466 185.22 413.696 413.696 413.696s413.696-185.228 413.696-413.696c0-228.487-185.22-413.696-413.696-413.696v0zM728.813 408.21l-257.414 257.412c-10.762 10.772-28.234 10.772-38.996 0l-128.708-128.708c-10.771-10.772-10.771-28.245 0-38.998 10.767-10.772 28.24-10.772 39.003 0l109.206 109.206 237.908-237.915c10.766-10.771 28.235-10.771 39.003 0 10.771 10.758 10.771 28.231 0 39.003v0zM728.813 408.21z" fill="#1296db" p-id="1612"></path></svg>