<?xml version="1.0" standalone="no"?><!DOCTYPE svg PUBLIC "-//W3C//DTD SVG 1.1//EN" "http://www.w3.org/Graphics/SVG/1.1/DTD/svg11.dtd"><svg class="icon" width="200px" height="200.00px" viewBox="0 0 1024 1024" version="1.1" xmlns="http://www.w3.org/2000/svg"><path d="M475.428571 877.714286C256 877.714286 73.142857 694.857143 73.142857 475.428571S256 73.142857 475.428571 73.142857 877.714286 256 877.714286 475.428571 694.857143 877.714286 475.428571 877.714286m0-877.714286C212.114286 0 0 212.114286 0 475.428571S212.114286 950.857143 475.428571 950.857143 950.857143 738.742857 950.857143 475.428571 738.742857 0 475.428571 0m131.657143 343.771429c-14.628571-14.628571-36.571429-14.628571-51.2 0L475.428571 424.228571 394.971429 343.771429c-14.628571-14.628571-36.571429-14.628571-51.2 0s-14.628571 36.571429 0 51.2l80.457142 80.457142-80.457142 80.457143c-14.628571 14.628571-14.628571 36.571429 0 51.2 14.628571 14.628571 36.571429 14.628571 51.2 0l80.457142-80.457143 80.457143 80.457143c14.628571 14.628571 36.571429 14.628571 51.2 0 14.628571-14.628571 14.628571-36.571429 0-51.2L526.628571 475.428571l80.457143-80.457142c14.628571-14.628571 14.628571-36.571429 0-51.2" fill="#dd6572" /></svg>