<?xml version="1.0" standalone="no"?><!DOCTYPE svg PUBLIC "-//W3C//DTD SVG 1.1//EN" "http://www.w3.org/Graphics/SVG/1.1/DTD/svg11.dtd"><svg t="1534815566634" class="icon" style="" viewBox="0 0 1024 1024" version="1.1" xmlns="http://www.w3.org/2000/svg" p-id="5285" xmlns:xlink="http://www.w3.org/1999/xlink" width="200" height="200"><defs><style type="text/css"></style></defs><path d="M620.2 891.3H403.8c-71.7 0-139.3-28.1-190.3-79.1-51-51-79.1-118.6-79.1-190.3V402.2c0-71.7 28.1-139.3 79.1-190.3s118.6-79.1 190.3-79.1h216.5c71.7 0 139.3 28.1 190.3 79.1s79.1 118.6 79.1 190.3v219.7c0 71.7-28.1 139.3-79.1 190.3-51.1 51-118.7 79.1-190.4 79.1zM403.8 172.7c-126.5 0-229.4 102.9-229.4 229.4v219.7c0 126.5 102.9 229.4 229.4 229.4h216.5c126.5 0 229.4-102.9 229.4-229.4V402.2c0-126.5-102.9-229.4-229.4-229.4H403.8z" p-id="5286" fill="#1296db"></path></svg>