<?xml version="1.0" standalone="no"?><!DOCTYPE svg PUBLIC "-//W3C//DTD SVG 1.1//EN" "http://www.w3.org/Graphics/SVG/1.1/DTD/svg11.dtd"><svg t="1535686303521" class="icon" style="" viewBox="0 0 1024 1024" version="1.1" xmlns="http://www.w3.org/2000/svg" p-id="22330" xmlns:xlink="http://www.w3.org/1999/xlink" width="200" height="200"><defs><style type="text/css"></style></defs><path d="M930.427586 709.737931c8.827586 0 14.124138 7.062069 14.124138 14.124138v229.517241c0 35.310345-28.248276 63.558621-63.558621 63.558621H134.17931c-35.310345 0-63.558621-28.248276-63.55862-63.558621V723.862069c0-8.827586 7.062069-14.124138 14.124138-14.124138s14.124138 7.062069 14.124138 14.124138v229.517241c0 19.42069 15.889655 35.310345 35.310344 35.310345h746.813793c19.42069 0 35.310345-15.889655 35.310345-35.310345V723.862069c0-8.827586 7.062069-14.124138 14.124138-14.124138z m37.075862-448.441379c21.186207 0 38.841379 17.655172 38.84138 38.841379v105.931035c0 21.186207-17.655172 38.841379-38.84138 38.841379h-21.186207v180.082758c0 8.827586-7.062069 14.124138-14.124138 14.124138-8.827586 0-14.124138-7.062069-14.124137-14.124138V444.910345H612.634483v273.655172c0 10.593103-5.296552 19.42069-15.889655 24.717242-3.531034 1.765517-7.062069 3.531034-12.358621 3.531034-7.062069 0-12.358621-1.765517-17.655173-7.062069l-30.013793-24.717241h-61.793103l-28.248276 24.717241s-1.765517 0-1.765517 1.765517c-5.296552 3.531034-10.593103 5.296552-15.889655 5.296552-3.531034 0-5.296552 0-8.827587-1.765517-1.765517 0-1.765517 0-3.531034-1.765517-8.827586-3.531034-14.124138-10.593103-15.889655-19.42069V444.910345H97.103448v181.848276c0 8.827586-7.062069 14.124138-14.124138 14.124138s-14.124138-7.062069-14.124138-14.124138V444.910345H47.668966C26.482759 444.910345 8.827586 429.02069 8.827586 406.068966v-105.931035c0-21.186207 17.655172-38.841379 38.84138-38.841379H132.413793c-30.013793-24.717241-49.434483-51.2-58.262069-79.448276s-10.593103-70.62069 24.717242-114.758621C143.006897 12.358621 192.441379 3.531034 225.986207 7.062069c60.027586 5.296552 121.82069 51.2 187.144827 134.17931 10.593103 14.124138 21.186207 28.248276 31.779311 44.137931 10.593103-8.827586 22.951724-14.124138 37.075862-14.124138h51.2c14.124138 0 26.482759 5.296552 37.075862 14.124138 10.593103-15.889655 21.186207-30.013793 31.77931-44.137931C665.6 58.262069 729.158621 12.358621 789.186207 7.062069c33.544828-3.531034 82.97931 5.296552 127.117241 60.027586 35.310345 45.903448 33.544828 88.275862 24.717242 114.758621-8.827586 28.248276-28.248276 54.731034-58.262069 79.448276h84.744827z m-564.965517 155.365517v-125.351724H47.668966c-5.296552 0-8.827586 3.531034-8.827587 8.827586v105.931035c0 5.296552 3.531034 8.827586 8.827587 8.827586h354.868965z m-51.2-155.365517h21.186207c-10.593103-17.655172-24.717241-37.075862-40.606897-58.262069-63.558621-81.213793-102.4-93.572414-116.524138-95.337931-5.296552 0-19.42069-1.765517-38.841379 22.951724-10.593103 12.358621-8.827586 17.655172-7.062069 21.186207 5.296552 15.889655 31.77931 44.137931 93.572414 74.151724 24.717241 10.593103 67.089655 28.248276 88.275862 35.310345z m75.917241-38.84138c0-3.531034 0-7.062069 1.765518-10.593103-12.358621-17.655172-24.717241-35.310345-37.075862-51.2-58.262069-75.917241-114.758621-118.289655-165.958621-121.82069-26.482759-1.765517-65.324138 3.531034-102.4 49.434483C95.337931 123.586207 97.103448 155.365517 104.165517 176.551724c8.827586 30.013793 35.310345 60.027586 79.448276 88.275862H273.655172l-21.186206-10.593103c-35.310345-17.655172-97.103448-52.965517-109.462069-91.806897-3.531034-17.655172 0-31.77931 12.35862-49.434483 19.42069-24.717241 40.606897-35.310345 63.558621-33.544827 26.482759 1.765517 72.386207 22.951724 135.944828 105.931034 21.186207 28.248276 40.606897 56.496552 51.2 75.917242h17.655172v-38.84138z m28.248276 3.531035v35.310345h104.165518v-35.310345c0-14.124138-12.358621-26.482759-26.482759-26.482759h-51.2c-14.124138 0-26.482759 12.358621-26.482759 26.482759z m21.186207 489.048276H538.482759L506.703448 688.551724l-30.013793 26.482759z m105.931035 0v-423.724138H432.551724v421.958621l56.496552-47.668966 1.765517-1.765517s1.765517 0 1.765517-1.765517H529.655172l1.765518 1.765517 51.2 51.2z m24.717241-453.737931c12.358621-19.42069 30.013793-47.668966 51.2-75.917242 63.558621-82.97931 109.462069-104.165517 135.944828-105.931034 22.951724-1.765517 44.137931 8.827586 63.55862 33.544827 14.124138 17.655172 17.655172 31.77931 12.358621 47.668966-12.358621 38.841379-74.151724 74.151724-109.462069 91.806897l-21.186207 10.593103h91.806897c42.372414-28.248276 68.855172-58.262069 79.448276-88.275862 7.062069-21.186207 8.827586-52.965517-19.42069-88.275862-35.310345-45.903448-75.917241-51.2-102.4-49.434483-51.2 5.296552-107.696552 45.903448-165.958621 121.82069-12.358621 15.889655-24.717241 33.544828-37.075862 51.2 0 3.531034 1.765517 7.062069 1.765517 10.593103v40.606897h19.42069z m56.496552 0c21.186207-7.062069 63.558621-24.717241 86.510345-35.310345 61.793103-30.013793 88.275862-58.262069 93.572413-74.151724 1.765517-3.531034 1.765517-8.827586-7.062069-21.186207C817.434483 105.931034 803.310345 107.696552 798.013793 107.696552c-14.124138 1.765517-52.965517 12.358621-116.524138 95.337931-15.889655 21.186207-30.013793 40.606897-40.606896 58.262069h22.951724zM978.096552 406.068966v-105.931035c0-5.296552-3.531034-8.827586-8.827586-8.827586H612.634483v125.351724h354.868965c5.296552 0 10.593103-5.296552 10.593104-10.593103z" p-id="22331" fill="#8a8a8a"></path></svg>