<?xml version="1.0" standalone="no"?><!DOCTYPE svg PUBLIC "-//W3C//DTD SVG 1.1//EN" "http://www.w3.org/Graphics/SVG/1.1/DTD/svg11.dtd"><svg t="1535686114695" class="icon" style="" viewBox="0 0 1024 1024" version="1.1" xmlns="http://www.w3.org/2000/svg" p-id="19541" xmlns:xlink="http://www.w3.org/1999/xlink" width="200" height="200"><defs><style type="text/css"></style></defs><path d="M512 211.4c-59.9 0-116.1 23.3-158.5 65.6-42.3 42.3-65.6 98.6-65.6 158.5s23.3 116.1 65.6 158.5c42.3 42.3 98.6 65.6 158.5 65.6s116.1-23.3 158.5-65.6 65.6-98.6 65.6-158.5-23.3-116.2-65.6-158.5-98.6-65.6-158.5-65.6z m0 406.2c-100.4 0-182.1-81.7-182.1-182.1S411.6 253.4 512 253.4c100.4 0 182.1 81.7 182.1 182.1S612.4 617.6 512 617.6z" fill="#8a8a8a" p-id="19542"></path><path d="M953.4 752.1L831.3 600.6c4.3-8.2 8.2-16.6 11.9-25.2 18.7-44.3 28.3-91.4 28.3-139.9s-9.5-95.6-28.3-139.9c-18.1-42.8-44-81.2-77-114.2s-71.4-58.9-114.2-77c-44.4-18.8-91.5-28.3-140-28.3s-95.6 9.5-139.9 28.3c-42.8 18.1-81.2 44-114.2 77s-58.9 71.4-77 114.2c-18.7 44.3-28.3 91.4-28.3 139.9s9.5 95.6 28.3 139.9c3.6 8.6 7.6 17 11.9 25.2L70.6 752.1c-4.2 5.2-5.7 12.2-3.9 18.7 1.8 6.5 6.6 11.8 12.9 14.1L200 830.3l69.9 108c3.7 5.7 9.8 9.2 16.5 9.6h1.1c6.3 0 12.4-2.9 16.4-7.8l124.8-154.9c27.1 6.4 54.9 9.7 83.2 9.7 28.3 0 56.1-3.3 83.2-9.7L720 940.1c4 5 10 7.8 16.3 7.8h1.1c6.7-0.3 12.9-3.9 16.5-9.6l69.9-108 120.4-45.4c6.3-2.4 11.1-7.6 12.9-14.1 1.9-6.5 0.5-13.5-3.7-18.7z m-663.9 139l-57.9-89.5c-2.4-3.8-6-6.7-10.2-8.2l-99.8-37.6L215.7 639c12.4 18 26.5 34.9 42.1 50.6 33 33 71.4 58.9 114.2 77 4.4 1.9 8.9 3.6 13.4 5.3l-95.9 119.2z m-94.9-455.6c0-175 142.4-317.4 317.4-317.4s317.4 142.4 317.4 317.4c0 175-142.4 317.4-317.4 317.4S194.6 610.5 194.6 435.5z m608.1 357.9c-4.2 1.6-7.8 4.5-10.2 8.2l-57.9 89.5-96.1-119.2c4.5-1.7 9-3.5 13.4-5.3 42.8-18.1 81.2-44 114.2-77 15.7-15.7 29.7-32.6 42.1-50.6l94.2 116.9-99.7 37.5z" fill="#8a8a8a" p-id="19543"></path></svg>