<svg id="图层_1" data-name="图层 1" xmlns="http://www.w3.org/2000/svg" viewBox="0 0 200 200"><defs><style>.cls-1{fill:#353535;}</style></defs><title>密码显示</title><rect class="cls-1" x="-6" y="97.5" width="212" height="5" rx="2.5" ry="2.5" transform="translate(100 -41.42) rotate(45)"/><path class="cls-1" d="M123.57,134.17A41.51,41.51,0,0,1,65.83,76.43L48.91,59.51A140.53,140.53,0,0,0,31.8,70.3a145.39,145.39,0,0,0-26,24.23L3.53,97.4a4.18,4.18,0,0,0,0,5.2l2.26,2.86a146,146,0,0,0,26,24.24C53.44,145.6,77,154,100,154a103.69,103.69,0,0,0,36.49-6.9Z"/><path class="cls-1" d="M196.47,97.4l-2.26-2.86a145.52,145.52,0,0,0-26-24.24C146.56,54.4,123,46,100,46a103.69,103.69,0,0,0-36.49,6.9L76.43,65.83a41.51,41.51,0,0,1,57.74,57.74l16.92,16.92A140.53,140.53,0,0,0,168.2,129.7a145.37,145.37,0,0,0,26-24.23l2.27-2.87A4.18,4.18,0,0,0,196.47,97.4Z"/><path class="cls-1" d="M112.48,101.87a14.5,14.5,0,0,0,.09-1.47,4.37,4.37,0,0,1,8.74,0,21.52,21.52,0,0,1-1.76,8.54l5,5A28.42,28.42,0,0,0,86,75.43Z"/><path class="cls-1" d="M109.23,119.84a21.6,21.6,0,0,1-9.63,2.26,4.37,4.37,0,0,1,0-8.74,13.12,13.12,0,0,0,2.83-.32L75.22,85.82a28.41,28.41,0,0,0,39,39Z"/></svg>