<?xml version="1.0" standalone="no"?><!DOCTYPE svg PUBLIC "-//W3C//DTD SVG 1.1//EN" "http://www.w3.org/Graphics/SVG/1.1/DTD/svg11.dtd"><svg t="1535685941228" class="icon" style="" viewBox="0 0 1024 1024" version="1.1" xmlns="http://www.w3.org/2000/svg" p-id="17978" xmlns:xlink="http://www.w3.org/1999/xlink" width="200" height="200"><defs><style type="text/css"></style></defs><path d="M790.144 85.12a39.296 39.296 0 1 0-42.88 65.92 430.336 430.336 0 0 1 197.76 362.56c0 238.08-194.24 431.68-432.96 431.68-238.72 0-433.024-193.664-433.024-431.68a430.208 430.208 0 0 1 197.888-362.432 39.296 39.296 0 0 0 11.712-54.464 39.552 39.552 0 0 0-54.656-11.648A508.544 508.544 0 0 0 0 513.6C0 795.072 229.632 1024 512 1024c282.432 0 512-228.928 512-510.4a508.16 508.16 0 0 0-233.856-428.416zM512.064 548.032c21.76 0 39.424-18.048 39.424-40.32V40.192A39.872 39.872 0 0 0 512.064 0a39.872 39.872 0 0 0-39.488 40.192v467.456c0 22.272 17.6 40.32 39.488 40.32z" fill="#8a8a8a" p-id="17979"></path></svg>