<?xml version="1.0" standalone="no"?><!DOCTYPE svg PUBLIC "-//W3C//DTD SVG 1.1//EN" "http://www.w3.org/Graphics/SVG/1.1/DTD/svg11.dtd"><svg t="1535685469684" class="icon" style="" viewBox="0 0 1024 1024" version="1.1" xmlns="http://www.w3.org/2000/svg" p-id="8789" xmlns:xlink="http://www.w3.org/1999/xlink" width="200" height="200"><defs><style type="text/css"></style></defs><path d="M679.731 557.158c-10.419 0-20.813-4.224-28.39-12.57-14.285-15.666-13.133-39.986 2.585-54.22 48.103-43.776 75.7-105.856 75.7-170.368 0-127.053-103.348-230.4-230.4-230.4s-230.4 103.347-230.4 230.4c0 64.538 27.596 126.592 75.699 170.317 15.693 14.285 16.845 38.553 2.611 54.246-14.26 15.744-38.58 16.82-54.246 2.611C228.762 488.884 192 406.067 192 319.974c0-169.395 137.805-307.2 307.2-307.2s307.2 137.805 307.2 307.2c0 86.093-36.762 168.91-100.838 227.175a38.25 38.25 0 0 1-25.83 10.01z" fill="#8a8a8a" p-id="8790"></path><path d="M512 1024H115.2c-21.197 0-38.4-17.203-38.4-38.4V780.8c0-156.237 85.76-222.26 223.795-295.962 14.285-7.68 31.898-5.478 43.904 5.453C387.123 529.05 442.086 550.4 499.2 550.4c57.14 0 112.077-21.325 154.7-60.083 12.007-10.957 29.569-13.133 43.905-5.453C835.84 558.541 921.6 624.538 921.6 780.8v89.6c0 21.197-17.203 38.4-38.4 38.4s-38.4-17.203-38.4-38.4v-89.6c0-119.322-61.184-152.32-161.229-215.424C630.451 605.414 565.965 627.2 499.2 627.2c-66.74 0-131.251-21.811-184.371-61.85C214.784 628.48 153.6 661.478 153.6 780.8v166.4H512c21.197 0 38.4 17.203 38.4 38.4S533.197 1024 512 1024z" fill="#8a8a8a" p-id="8791"></path><path d="M499.2 627.2c-76.262 0-149.555-28.416-206.362-80.051-15.692-14.285-16.844-38.554-2.61-54.247 14.284-15.744 38.604-16.793 54.246-2.61 42.624 38.758 97.587 60.108 154.7 60.108 57.14 0 112.077-21.325 154.701-60.083 15.667-14.208 40.013-13.133 54.247 2.611 14.259 15.693 13.107 39.987-2.612 54.246-56.73 51.61-130.048 80.026-206.31 80.026zM588.8 985.6a1.5 1.5 0 1 0 76.8 0 1.5 1.5 0 1 0-76.8 0zM716.8 985.6a1.5 1.5 0 1 0 76.8 0 1.5 1.5 0 1 0-76.8 0zM844.8 985.6a1.5 1.5 0 1 0 76.8 0 1.5 1.5 0 1 0-76.8 0z" fill="#8a8a8a" p-id="8792"></path></svg>