<?xml version="1.0" standalone="no"?><!DOCTYPE svg PUBLIC "-//W3C//DTD SVG 1.1//EN" "http://www.w3.org/Graphics/SVG/1.1/DTD/svg11.dtd"><svg t="1534815632700" class="icon" style="" viewBox="0 0 1024 1024" version="1.1" xmlns="http://www.w3.org/2000/svg" p-id="5487" xmlns:xlink="http://www.w3.org/1999/xlink" width="200" height="200"><defs><style type="text/css"></style></defs><path d="M810.1 212.3c-51-51-118.6-79.1-190.3-79.1H404.2c-71.7 0-139.3 28.1-190.3 79.1s-79.1 118.6-79.1 190.3v218.7c0 71.7 28.1 139.3 79.1 190.3 51 51 118.6 79.1 190.3 79.1h215.5c71.7 0 139.3-28.1 190.3-79.1s79.1-118.6 79.1-190.3V402.6c0.1-71.7-28-139.2-79-190.3z m39.1 409.1c0 126.5-102.9 229.4-229.4 229.4H404.2c-126.5 0-229.4-102.9-229.4-229.4V402.6c0-126.5 102.9-229.4 229.4-229.4h215.5c126.5 0 229.4 102.9 229.4 229.4v218.8z" p-id="5488" fill="#1296db"></path><path d="M721.4 360.2l-230 247.7c-26.2 28.2-70.4 29.8-98.5 3.7l-91.3-84.8c-8.1-7.5-20.8-7-28.3 1.1s-7 20.8 1.1 28.3l91.3 84.8c20.5 19 46.8 29.3 74.5 29.3 1.4 0 2.8 0 4.2-0.1 29.3-1.1 56.4-13.5 76.3-35l230-247.7c7.5-8.1 7-20.8-1.1-28.3-8-7.6-20.7-7.1-28.2 1z" p-id="5489" fill="#1296db"></path></svg>