<?xml version="1.0" standalone="no"?><!DOCTYPE svg PUBLIC "-//W3C//DTD SVG 1.1//EN" "http://www.w3.org/Graphics/SVG/1.1/DTD/svg11.dtd"><svg t="1534841272354" class="icon" style="" viewBox="0 0 1024 1024" version="1.1" xmlns="http://www.w3.org/2000/svg" p-id="12654" xmlns:xlink="http://www.w3.org/1999/xlink" width="200" height="200"><defs><style type="text/css"></style></defs><path d="M824.3 928H201.9c-57.3 0-103.7-46.4-103.7-103.7V201.9c0-57.3 46.4-103.7 103.7-103.7h622.3c57.3 0 103.7 46.4 103.7 103.7v622.3C928 881.6 881.6 928 824.3 928z m69.1-726.1c0-38.2-31-69.1-69.1-69.1H201.9c-38.2 0-69.1 31-69.1 69.1v622.3c0 38.2 31 69.1 69.1 69.1h622.3c38.2 0 69.1-31 69.1-69.1V201.9z" fill="#CCCCCC" p-id="12655"></path><path d="M830 356.2l-391 391-5.7 5.6-2.8-2.8-208.6-208.5 26.1-26.1 185.3 185.3 370.6-370.6 26.1 26.1z" fill="#E52222" p-id="12656"></path></svg>