<?xml version="1.0" standalone="no"?><!DOCTYPE svg PUBLIC "-//W3C//DTD SVG 1.1//EN" "http://www.w3.org/Graphics/SVG/1.1/DTD/svg11.dtd"><svg t="1535685204828" class="icon" style="" viewBox="0 0 1579 1024" version="1.1" xmlns="http://www.w3.org/2000/svg" p-id="3776" xmlns:xlink="http://www.w3.org/1999/xlink" width="308.3984375" height="200"><defs><style type="text/css"></style></defs><path d="M110.939522 513.10369a55.469761 55.469761 0 1 0-55.628246 55.311276A55.469761 55.469761 0 0 0 110.939522 513.10369zM387.495902 513.10369A55.469761 55.469761 0 1 0 332.818567 568.414966a55.628246 55.628246 0 0 0 55.469761-55.311276zM619.042534 457.475444h773.882409L1030.152706 95.654116a55.469761 55.469761 0 0 1 79.242516-79.242516l450.09749 450.731431a63.394013 63.394013 0 0 1 0 89.702528l-33.757312 33.757311L1109.395222 1007.418504a55.628246 55.628246 0 0 1-79.242516 0 55.311276 55.311276 0 0 1 0-79.242516l360.870417-359.761022H619.042534a55.469761 55.469761 0 0 1-55.469761-55.469761 55.469761 55.469761 0 0 1 55.469761-55.469761z" p-id="3777" fill="#8a8a8a"></path></svg>