<svg id="图层_1" data-name="图层 1" xmlns="http://www.w3.org/2000/svg" viewBox="0 0 200 200"><defs><style>.cls-1{fill:#353535;}</style></defs><title>密码显示</title><path class="cls-1" d="M196.07,96.88,193.81,94a145,145,0,0,0-26-24.23c-21.65-15.9-45.23-24.31-68.21-24.31S53,53.89,31.4,69.79A144.56,144.56,0,0,0,5.4,94L3.13,96.88a4.22,4.22,0,0,0,0,5.21L5.4,105a145,145,0,0,0,26,24.23c21.64,15.9,45.23,24.31,68.2,24.31s46.56-8.41,68.21-24.31a145.39,145.39,0,0,0,26-24.23l2.26-2.86A4.19,4.19,0,0,0,196.07,96.88ZM99.6,141a41.52,41.52,0,1,1,41.52-41.52A41.51,41.51,0,0,1,99.6,141Z"/><path class="cls-1" d="M99.6,71.08A28.41,28.41,0,1,0,128,99.48,28.4,28.4,0,0,0,99.6,71.08Zm21.71,28.4a21.73,21.73,0,0,1-21.71,21.7,4.37,4.37,0,0,1,0-8.74,13,13,0,0,0,13-13,4.37,4.37,0,0,1,8.74,0Z"/></svg>